<?xml version="1.0" standalone="no"?>
<svg xmlns="http://www.w3.org/2000/svg" viewBox="0 0 124.608 36" width="124.608" height="36"><g fill="#ffb39f" color="#ffb39f" transform="translate(0 4) scale(0.5833334)"><svg width="48.0" height="48.0" x="0.0" y="0.0" viewBox="0 0 48 48"><g><path fill="currentColor" d="M39.5,47.5H8.5c-0.6,0-1-0.4-1-1V25.4c-4.4-2.4-7-6.8-7-11.5c0-7.4,6.4-13.4,14.2-13.4   c3.5,0,6.7,1.2,9.3,3.3c2.6-2.1,5.9-3.3,9.3-3.3c7.8,0,14.2,6,14.2,13.4c0,4.8-2.7,9.1-7,11.5v21.1C40.5,47.1,40,47.5,39.5,47.5z    M9.5,45.5h28.9V24.8c0-0.4,0.2-0.7,0.6-0.9c4-2,6.5-5.8,6.5-10c0-6.3-5.5-11.4-12.2-11.4c-3.3,0-6.3,1.2-8.6,3.3   c-0.4,0.4-1,0.4-1.4,0C21,3.7,18,2.5,14.7,2.5C8,2.5,2.5,7.6,2.5,13.9c0,4.2,2.5,8,6.5,10c0.3,0.2,0.6,0.5,0.6,0.9V45.5z"></path><path fill="currentColor" d="M14.7,27.2c-7.8,0-14.2-6-14.2-13.4c0-0.6,0.4-1,1-1c0.6,0,1,0.4,1,1c0,6.3,5.5,11.4,12.2,11.4   c2.3,0,4.6-0.6,6.5-1.7c0.5-0.3,1.1-0.1,1.4,0.4c0.3,0.5,0.1,1.1-0.4,1.4C19.9,26.5,17.4,27.2,14.7,27.2z"></path></g></svg></g><path fill="#ec5353" fill-rule="nonzero" d="M8.57 18.38L5.69 18.38L2.04 4.20Q1.87 3.55 1.68 3.32Q1.49 3.10 0.96 3L0.96 3L0 2.81L0 1.58L6.34 1.58L6.34 2.74L5.11 2.90Q4.63 2.98 4.52 3.22Q4.42 3.46 4.56 4.10L4.56 4.10L7.37 16.32L7.49 16.32L11.35 1.58L13.97 1.58L18.26 16.20L18.38 16.20L21.22 4.25Q21.36 3.60 21.24 3.34Q21.12 3.07 20.64 2.98L20.64 2.98L19.46 2.71L19.46 1.58L25.15 1.58L25.15 2.74L24.02 2.93Q23.54 3 23.30 3.28Q23.06 3.55 22.90 4.22L22.90 4.22L19.27 18.38L16.56 18.38L12.38 3.96L12.31 3.96L8.57 18.38ZM33.10 18.38L26.64 18.38L26.64 17.21L28.01 16.99Q28.49 16.92 28.62 16.68Q28.75 16.44 28.75 15.77L28.75 15.77L28.75 9.22Q28.75 8.33 28.60 8.05Q28.44 7.78 27.89 7.70L27.89 7.70L26.74 7.54L26.90 6.34L30.70 6.14L30.98 6.26L30.98 15.86Q30.98 16.46 31.14 16.69Q31.30 16.92 31.75 16.99L31.75 16.99L33.10 17.23L33.10 18.38ZM29.52 3.50L29.52 3.50Q28.82 3.50 28.37 3.06Q27.91 2.62 27.91 1.92L27.91 1.92Q27.91 1.22 28.37 0.77Q28.82 0.31 29.52 0.31L29.52 0.31Q30.24 0.31 30.70 0.76Q31.15 1.20 31.15 1.90L31.15 1.90Q31.15 2.59 30.70 3.05Q30.24 3.50 29.52 3.50ZM40.44 18.72L40.44 18.72Q38.71 18.72 37.44 17.95Q36.17 17.18 35.47 15.78Q34.78 14.38 34.78 12.46L34.78 12.46Q34.78 10.46 35.51 8.99Q36.24 7.51 37.56 6.70Q38.88 5.88 40.63 5.88L40.63 5.88Q41.86 5.88 42.83 6.29Q43.80 6.70 44.36 7.40Q44.93 8.11 44.93 9.02L44.93 9.02Q44.93 9.74 44.50 10.16Q44.06 10.58 43.34 10.58L43.34 10.58Q42.91 10.58 42.59 10.44Q42.26 10.30 42.10 10.04Q41.93 9.79 41.93 9.43L41.93 9.43Q41.93 9.14 42.07 8.78Q42.22 8.42 42.60 7.80L42.60 7.80Q42.14 7.46 41.66 7.34Q41.18 7.22 40.44 7.22L40.44 7.22Q39.50 7.22 38.77 7.82Q38.04 8.42 37.62 9.49Q37.20 10.56 37.20 11.95L37.20 11.95Q37.20 14.23 38.23 15.55Q39.26 16.87 41.04 16.87L41.04 16.87Q41.95 16.87 42.74 16.55Q43.54 16.22 44.14 15.62L44.14 15.62L44.95 16.46Q44.18 17.50 42.98 18.11Q41.78 18.72 40.44 18.72ZM52.58 18.72L52.58 18.72Q50.81 18.72 49.49 17.96Q48.17 17.21 47.46 15.83Q46.75 14.45 46.75 12.58L46.75 12.58Q46.75 10.51 47.50 9.01Q48.24 7.51 49.63 6.70Q51.02 5.88 52.92 5.88L52.92 5.88Q54.67 5.88 55.94 6.62Q57.22 7.37 57.91 8.74Q58.61 10.10 58.61 11.98L58.61 11.98Q58.61 14.02 57.86 15.54Q57.12 17.06 55.78 17.89Q54.43 18.72 52.58 18.72ZM52.92 17.23L52.92 17.23Q54.48 17.23 55.32 16.02Q56.16 14.81 56.16 12.55L56.16 12.55Q56.16 10.13 55.19 8.71Q54.22 7.30 52.54 7.30L52.54 7.30Q50.93 7.30 50.05 8.47Q49.18 9.65 49.18 11.86L49.18 11.86Q49.18 14.38 50.17 15.80Q51.17 17.23 52.92 17.23ZM66.65 18.72L66.65 18.72Q64.87 18.72 63.55 17.96Q62.23 17.21 61.52 15.83Q60.82 14.45 60.82 12.58L60.82 12.58Q60.82 10.51 61.56 9.01Q62.30 7.51 63.70 6.70Q65.09 5.88 66.98 5.88L66.98 5.88Q68.74 5.88 70.01 6.62Q71.28 7.37 71.98 8.74Q72.67 10.10 72.67 11.98L72.67 11.98Q72.67 14.02 71.93 15.54Q71.18 17.06 69.84 17.89Q68.50 18.72 66.65 18.72ZM66.98 17.23L66.98 17.23Q68.54 17.23 69.38 16.02Q70.22 14.81 70.22 12.55L70.22 12.55Q70.22 10.13 69.25 8.71Q68.28 7.30 66.60 7.30L66.60 7.30Q64.99 7.30 64.12 8.47Q63.24 9.65 63.24 11.86L63.24 11.86Q63.24 14.38 64.24 15.80Q65.23 17.23 66.98 17.23ZM86.45 18.60L86.45 18.60Q85.82 18.60 85.36 18.46Q84.89 18.31 84.43 17.93Q83.98 17.54 83.38 16.82L83.38 16.82L79.32 12L79.32 11.81L83.14 8.38Q83.45 8.11 83.45 7.82Q83.45 7.54 83.14 7.49L83.14 7.49L82.06 7.32L82.27 6.22L87.65 6.22L87.65 7.30L86.95 7.49Q86.54 7.61 86.11 7.84Q85.68 8.06 85.27 8.40L85.27 8.40L81.70 11.42L85.68 15.96Q86.18 16.51 86.58 16.74Q86.98 16.97 87.43 16.97L87.43 16.97Q87.58 16.97 87.77 16.92Q87.96 16.87 88.37 16.78L88.37 16.78L88.61 17.64Q88.15 18.10 87.58 18.35Q87.00 18.60 86.45 18.60ZM80.66 18.38L74.81 18.38L74.81 17.23L76.18 17.02Q76.66 16.94 76.79 16.70Q76.92 16.46 76.92 15.79L76.92 15.79L76.92 2.93Q76.92 2.09 76.74 1.84Q76.56 1.58 75.89 1.49L75.89 1.49L74.83 1.32L74.95 0.12L78.89 0L79.15 0.26L79.15 15.89Q79.15 16.46 79.28 16.69Q79.42 16.92 79.80 17.02L79.80 17.02L80.66 17.21L80.66 18.38Z" transform="translate(36, 8.808)"></path></svg>